<svg id="Capa_1" enable-background="new 0 0 511.223 511.223" height="512" viewBox="0 0 511.223 511.223" width="512" xmlns="http://www.w3.org/2000/svg"><g><g id="Page-1_8_"><g id="_x30_09---Eagle"><path id="Shape_28_" d="m25.957 215.602c1.415 3.417.632 7.351-1.984 9.966-.229.256-30.089 33.125-17.673 133.486 3.941-1.631 8.249-2.171 12.471-1.563 7.213 1.321 13.272 6.194 16.11 12.955 5.012 11.383 2.757 24.657-5.733 33.746 16.709.461 33.284-3.111 48.32-10.414 3.52-1.757 7.77-1.065 10.551 1.719 7.838 8.097 12.858 18.504 14.318 29.678 3.248-2.323 5.863-5.422 7.607-9.015 1.542-3.085 4.688-5.04 8.137-5.056 12.953.555 25.128 6.334 33.746 16.018 8.591 10.615 13.225 23.885 13.111 37.541 7.225-5.89 13.353-13.009 18.103-21.029 1.172-2.348 3.297-4.079 5.834-4.753s5.24-.224 7.423 1.233c15.623 11.53 26.363 28.491 30.107 47.543 6.659-5.228 10.544-13.229 10.533-21.696-.017-3.177 1.616-6.136 4.314-7.814s6.074-1.835 8.916-.415c10.291 6.022 17.809 15.841 20.937 27.346 5.96-4.832 10.044-11.594 11.547-19.118 0-4.616 3.442-8.508 8.024-9.073s8.866 2.374 9.988 6.851c.302 1.079 8.018 27.429 49.81 29.522 7.906-16.322 9.884-34.886 5.595-52.507-.854-3.407.319-7.003 3.019-9.25s6.448-2.749 9.644-1.292c-10.982-19.649-18.411-41.083-21.943-63.314-7.753-46.747-10.304-94.647 44.014-126.007-19.602-14.162-25.865-15.232-39.205-17.216-8.564-1.165-17.058-2.794-25.445-4.882-12.175-1.746-22.67-9.467-27.959-20.571-3.159-10.105-1.583-21.096 4.288-29.906 2.55-3.815 7.533-5.149 11.648-3.118 16.208 6.134 33.492 8.921 50.807 8.192 13.564-.112 27.098 1.277 40.357 4.142-.994-4.448-1.491-8.992-1.481-13.55-23.083-4.922-43.877-17.371-59.118-35.392-4.87 12.193-17.697 19.225-30.595 16.773s-22.25-13.701-22.306-26.83c.044-.989.145-1.975.302-2.953-9.058 2.286-18.394 3.28-27.73 2.953-36.16 0-45.714-23.927-45.714-36.571 0-5.049 4.093-9.143 9.143-9.143s9.143 4.093 9.143 9.143c.091 2.944 1.829 18.286 27.429 18.286 9.756.756 19.554-.745 28.635-4.389 8.261-3.571 17.232-5.198 26.222-4.754 1.787.002 3.57.183 5.321.539.631.128 1.216.357 1.829.53 1.151.282 2.283.634 3.392 1.051l.366.174c9.875 5.142 18.664 12.142 25.883 20.617 13.522 13.714 28.791 28.965 52.059 32.082.293-.53.521-1.088.85-1.609 3.638-5.794 9.028-10.277 15.387-12.8-11.173-39.798-48.238-113.727-169.088-113.727-117.714 0-183.826 43.429-212.635 69.12 8.5-.232 16.941 1.472 24.686 4.983 3.103 1.547 5.065 4.716 5.065 8.183s-1.961 6.636-5.065 8.183c-38.057 21.682-63.161 60.549-67.274 104.155 5.665-1.776 11.572-2.661 17.509-2.624 3.697-.001 7.031 2.226 8.448 5.641z"/><path id="Shape_27_" d="m322.953 110.222c-.146-.055-.283-.119-.43-.165-1.048-.428-2.168-.654-3.301-.667-4.738-.054-8.751 3.48-9.297 8.186-.546 4.707 2.552 9.065 7.177 10.096 4.624 1.031 9.281-1.597 10.787-6.09 1.507-4.492-.624-9.396-4.936-11.36z"/><path id="Shape_26_" d="m447.223 145.961c-11.703 0-19.383 2.743-22.766 8.137-5.943 9.6.731 27.886 3.566 33.463 1.718 3.547 1.023 7.792-1.737 10.606-2.807 2.784-7.087 3.448-10.606 1.646-16.198-6.085-33.454-8.853-50.743-8.137-16.88.28-33.707-1.969-49.92-6.674-.595 2.2-.5 4.53.274 6.674 2.011 5.12 9.417 7.954 15.269 9.417 10.331 2.56 17.371 3.566 23.68 4.571 17.371 2.469 26.149 4.48 52.754 24.411 16.808 12 36.133 20.005 56.503 23.406-6.564-6.502-13.693-12.407-21.303-17.646-3.677-2.961-4.494-8.235-1.886-12.171s7.783-5.238 11.943-3.007c1.28.823 29.623 19.84 39.68 40.046 2.723 5.471 4.897 11.198 6.491 17.097 8.37-15.177 12.773-32.222 12.8-49.554.001-24.776-6.216-82.285-63.999-82.285zm15.634 24.777-9.143 9.143c-3.605 3.536-9.377 3.536-12.983 0-3.566-3.593-3.566-9.39 0-12.983l9.143-9.143c3.585-3.585 9.398-3.585 12.983 0 3.585 3.586 3.585 9.398 0 12.983z"/></g></g></g></svg>